<!DOCTYPE svg PUBLIC "-//W3C//DTD SVG 20010904//EN" "http://www.w3.org/TR/2001/REC-SVG-20010904/DTD/svg10.dtd">
<svg version="1.0" xmlns="http://www.w3.org/2000/svg" width="1114px" height="256px" viewBox="0 0 11140 2560" preserveAspectRatio="xMidYMid meet">
<g id="layer101" fill="#448ff7" stroke="none">
 <path d="M3510 1610 l0 -830 70 0 70 0 0 90 c0 50 3 90 8 90 4 0 16 -21 26 -47 26 -64 100 -138 151 -152 185 -50 334 58 406 293 66 215 39 559 -56 722 -30 52 -103 119 -152 139 -49 21 -157 22 -204 3 -57 -25 -110 -78 -141 -143 l-28 -60 0 363 0 362 -75 0 -75 0 0 -830z m475 166 c101 -66 156 -288 134 -537 -15 -174 -60 -283 -139 -337 -30 -20 -45 -23 -98 -20 -56 4 -66 7 -102 43 -84 82 -122 211 -122 415 0 134 14 227 44 300 26 60 64 115 97 136 52 35 133 35 186 0z"/>
 <path d="M385 2396 c-107 -34 -186 -103 -233 -204 -22 -48 -27 -71 -27 -142 0 -71 5 -94 27 -142 37 -80 105 -149 181 -184 l62 -29 715 -5 c662 -5 717 -6 741 -23 33 -22 49 -57 49 -108 0 -31 -7 -47 -34 -77 l-34 -37 -694 -5 -693 -5 -67 -33 c-74 -36 -133 -96 -170 -170 -34 -69 -37 -196 -8 -274 29 -79 96 -150 178 -190 l67 -33 660 -5 c734 -6 689 -1 725 -76 24 -49 24 -58 1 -110 -32 -71 -47 -74 -369 -74 -154 0 -282 -4 -284 -8 -1 -4 -31 -29 -66 -56 l-63 -48 58 -45 c32 -24 63 -51 70 -59 9 -13 54 -15 310 -12 l298 3 62 29 c76 35 144 104 181 184 22 48 27 71 27 142 0 71 -5 94 -27 142 -37 80 -105 149 -181 184 l-62 29 -663 5 -664 5 -34 37 c-28 31 -34 45 -34 83 0 38 6 52 34 83 l34 37 694 5 693 5 57 27 c114 53 188 150 208 272 25 152 -59 306 -203 372 l-62 29 -715 5 c-795 6 -744 1 -780 76 -24 49 -24 58 -1 110 36 80 -91 74 1535 74 l1446 0 0 115 0 115 -1452 -1 c-1145 0 -1461 -3 -1493 -13z"/>
 <path d="M3840 2295 l0 -115 3534 0 c1944 0 3536 4 3538 8 2 4 31 29 66 56 l63 48 -66 50 c-36 28 -65 54 -65 59 0 5 -1505 9 -3535 9 l-3535 0 0 -115z"/>
 <path d="M2735 1930 c-102 -21 -190 -69 -259 -139 l-39 -39 48 -56 48 -55 44 45 c128 132 351 139 442 13 62 -85 77 -204 39 -306 -32 -88 -94 -146 -252 -237 -171 -98 -225 -146 -271 -239 -107 -218 -32 -501 159 -599 161 -83 379 -55 497 63 l40 40 -48 53 -47 54 -49 -44 c-73 -65 -173 -88 -269 -60 -109 31 -178 138 -178 275 0 150 62 230 267 344 157 87 230 153 280 254 32 66 37 86 41 165 7 152 -35 275 -124 365 -88 88 -238 130 -369 103z"/>
 <path d="M6867 1930 c-203 -35 -327 -254 -327 -580 0 -360 155 -600 389 -600 94 0 153 23 216 85 92 89 131 204 142 413 l6 122 -301 0 -302 0 0 45 c0 159 75 325 164 366 106 48 202 9 268 -108 l24 -42 49 31 c28 17 52 32 54 34 12 11 -41 96 -90 145 -77 77 -178 108 -292 89z m273 -712 c0 -121 -53 -267 -111 -309 -50 -35 -142 -39 -189 -7 -76 52 -128 156 -145 291 l-7 57 226 0 226 0 0 -32z"/>
 <path d="M10177 1929 c-110 -17 -199 -89 -253 -204 -58 -123 -69 -180 -69 -375 0 -192 17 -285 71 -392 34 -68 107 -144 169 -176 44 -24 62 -27 145 -27 80 0 102 4 138 23 136 73 202 217 218 480 l7 112 -303 0 -303 0 6 83 c12 162 68 280 157 325 106 53 211 9 274 -115 l16 -33 53 32 c28 17 54 33 56 35 8 6 -26 68 -67 120 -70 88 -193 132 -315 112z m267 -736 c-21 -216 -86 -313 -207 -313 -60 0 -88 11 -126 52 -59 61 -110 195 -111 291 l0 27 225 0 225 0 -6 -57z"/>
 <path d="M4560 1050 l0 -850 75 0 75 0 0 850 0 850 -75 0 -75 0 0 -850z"/>
 <path d="M5052 1343 l3 -558 73 -3 72 -3 0 561 0 560 -75 0 -75 0 2 -557z"/>
 <path d="M5560 1468 c0 -238 -3 -490 -7 -560 l-6 -128 70 0 71 0 6 31 c3 17 6 68 6 112 l0 81 34 -70 c19 -39 50 -88 70 -107 60 -60 90 -72 187 -72 78 0 90 3 134 30 58 36 97 94 121 180 15 51 18 124 22 498 l4 437 -76 0 -75 0 -3 -427 c-3 -379 -6 -433 -21 -473 -33 -85 -91 -125 -168 -118 -60 6 -110 39 -150 98 -61 91 -63 107 -67 533 l-3 387 -75 0 -74 0 0 -432z"/>
 <path d="M7570 1105 l0 -795 75 0 75 0 0 720 0 720 230 0 230 0 0 75 0 75 -305 0 -305 0 0 -795z"/>
 <path d="M8360 1340 l0 -560 75 0 75 0 0 560 0 560 -75 0 -75 0 0 -560z"/>
 <path d="M8860 1340 l0 -560 69 0 68 0 7 61 c3 34 6 85 6 113 l0 51 24 -57 c50 -121 130 -187 239 -195 94 -8 143 10 202 70 92 95 104 179 105 725 l0 352 -75 0 -75 0 0 -362 c0 -405 -8 -509 -42 -571 -47 -84 -130 -109 -218 -64 -55 27 -101 93 -132 185 -20 63 -22 90 -26 440 l-4 372 -74 0 -74 0 0 -560z"/>
 <path d="M5081 537 c-57 -33 -69 -118 -23 -166 26 -29 42 -35 88 -32 28 1 70 45 77 77 6 35 -9 87 -32 108 -25 23 -81 29 -110 13z"/>
 <path d="M8395 538 c-62 -33 -75 -116 -27 -169 60 -68 162 -22 162 74 -1 78 -73 129 -135 95z"/>
 </g>
<g id="layer102" fill="#92a7c4" stroke="none">
 <path d="M3510 1610 l0 -830 70 0 70 0 0 90 c0 50 3 90 8 90 4 0 16 -21 26 -47 26 -64 100 -138 151 -152 185 -50 334 58 406 293 66 215 39 559 -56 722 -30 52 -103 119 -152 139 -49 21 -157 22 -204 3 -57 -25 -110 -78 -141 -143 l-28 -60 0 363 0 362 -75 0 -75 0 0 -830z m475 166 c101 -66 156 -288 134 -537 -15 -174 -60 -283 -139 -337 -30 -20 -45 -23 -98 -20 -56 4 -66 7 -102 43 -84 82 -122 211 -122 415 0 134 14 227 44 300 26 60 64 115 97 136 52 35 133 35 186 0z"/>
 <path d="M2735 1930 c-102 -21 -190 -69 -259 -139 l-39 -39 48 -56 48 -55 44 45 c128 132 351 139 442 13 62 -85 77 -204 39 -306 -32 -88 -94 -146 -252 -237 -171 -98 -225 -146 -271 -239 -107 -218 -32 -501 159 -599 161 -83 379 -55 497 63 l40 40 -48 53 -47 54 -49 -44 c-73 -65 -173 -88 -269 -60 -109 31 -178 138 -178 275 0 150 62 230 267 344 157 87 230 153 280 254 32 66 37 86 41 165 7 152 -35 275 -124 365 -88 88 -238 130 -369 103z"/>
 <path d="M6867 1930 c-203 -35 -327 -254 -327 -580 0 -360 155 -600 389 -600 94 0 153 23 216 85 92 89 131 204 142 413 l6 122 -301 0 -302 0 0 45 c0 159 75 325 164 366 106 48 202 9 268 -108 l24 -42 49 31 c28 17 52 32 54 34 12 11 -41 96 -90 145 -77 77 -178 108 -292 89z m273 -712 c0 -121 -53 -267 -111 -309 -50 -35 -142 -39 -189 -7 -76 52 -128 156 -145 291 l-7 57 226 0 226 0 0 -32z"/>
 <path d="M10177 1929 c-110 -17 -199 -89 -253 -204 -58 -123 -69 -180 -69 -375 0 -192 17 -285 71 -392 34 -68 107 -144 169 -176 44 -24 62 -27 145 -27 80 0 102 4 138 23 136 73 202 217 218 480 l7 112 -303 0 -303 0 6 83 c12 162 68 280 157 325 106 53 211 9 274 -115 l16 -33 53 32 c28 17 54 33 56 35 8 6 -26 68 -67 120 -70 88 -193 132 -315 112z m267 -736 c-21 -216 -86 -313 -207 -313 -60 0 -88 11 -126 52 -59 61 -110 195 -111 291 l0 27 225 0 225 0 -6 -57z"/>
 <path d="M4560 1050 l0 -850 75 0 75 0 0 850 0 850 -75 0 -75 0 0 -850z"/>
 <path d="M5052 1343 l3 -558 73 -3 72 -3 0 561 0 560 -75 0 -75 0 2 -557z"/>
 <path d="M5560 1468 c0 -238 -3 -490 -7 -560 l-6 -128 70 0 71 0 6 31 c3 17 6 68 6 112 l0 81 34 -70 c19 -39 50 -88 70 -107 60 -60 90 -72 187 -72 78 0 90 3 134 30 58 36 97 94 121 180 15 51 18 124 22 498 l4 437 -76 0 -75 0 -3 -427 c-3 -379 -6 -433 -21 -473 -33 -85 -91 -125 -168 -118 -60 6 -110 39 -150 98 -61 91 -63 107 -67 533 l-3 387 -75 0 -74 0 0 -432z"/>
 <path d="M7570 1105 l0 -795 75 0 75 0 0 720 0 720 230 0 230 0 0 75 0 75 -305 0 -305 0 0 -795z"/>
 <path d="M8360 1340 l0 -560 75 0 75 0 0 560 0 560 -75 0 -75 0 0 -560z"/>
 <path d="M8860 1340 l0 -560 69 0 68 0 7 61 c3 34 6 85 6 113 l0 51 24 -57 c50 -121 130 -187 239 -195 94 -8 143 10 202 70 92 95 104 179 105 725 l0 352 -75 0 -75 0 0 -362 c0 -405 -8 -509 -42 -571 -47 -84 -130 -109 -218 -64 -55 27 -101 93 -132 185 -20 63 -22 90 -26 440 l-4 372 -74 0 -74 0 0 -560z"/>
 <path d="M5081 537 c-57 -33 -69 -118 -23 -166 26 -29 42 -35 88 -32 28 1 70 45 77 77 6 35 -9 87 -32 108 -25 23 -81 29 -110 13z"/>
 <path d="M8395 538 c-62 -33 -75 -116 -27 -169 60 -68 162 -22 162 74 -1 78 -73 129 -135 95z"/>
 </g>

</svg>